<?xml version="1.0" standalone="no"?>
<!DOCTYPE svg PUBLIC "-//W3C//DTD SVG 20010904//EN"
 "http://www.w3.org/TR/2001/REC-SVG-20010904/DTD/svg10.dtd">
<svg version="1.0" xmlns="http://www.w3.org/2000/svg"
 width="500.000000pt" height="500.000000pt" viewBox="0 0 500.000000 500.000000"
 preserveAspectRatio="xMidYMid meet">
<metadata>
Created by potrace 1.14, written by Peter Selinger 2001-2017
</metadata>
<g transform="translate(0.000000,500.000000) scale(0.100000,-0.100000)"
fill="#000000" stroke="none">
<path d="M2318 3955 c-2 -2 -39 -5 -83 -9 -571 -43 -1156 -267 -1622 -622 -88
-67 -183 -148 -275 -234 l-48 -45 1100 -1100 c605 -605 1104 -1100 1110 -1100
6 0 506 495 1111 1100 l1100 1100 -73 68 c-107 100 -267 227 -401 317 -64 44
-119 80 -122 80 -3 0 -22 11 -43 23 -276 174 -756 343 -1112 392 -75 10 -127
16 -170 21 -49 5 -468 13 -472 9z m380 -414 c9 -1 12 -112 12 -521 l0 -520
-210 0 -210 0 0 519 0 520 38 3 c29 2 313 1 370 -1z m0 -1460 c9 -1 12 -49 12
-206 0 -188 -1 -205 -17 -206 -10 0 -103 -1 -208 -2 l-190 -1 -3 206 c-2 188
-1 207 15 210 14 3 356 2 391 -1z"/>
</g>
</svg>
